<svg width="2512" height="2799" viewBox="0 0 2512 2799" fill="none" xmlns="http://www.w3.org/2000/svg">
<path d="M533.944 32.5089L533.911 32.6032C526.629 78.929 517.135 112.445 505.429 133.151C493.723 153.858 485.67 175.855 481.271 199.144C476.872 222.432 470.679 245.129 462.692 267.234C454.706 289.339 443.915 310.065 430.32 329.414C416.725 348.762 404.411 368.712 393.379 389.263C382.347 409.814 372.696 431.125 364.426 453.194C356.157 475.263 345.869 496.232 333.564 516.101C321.26 535.97 307.218 554.922 291.439 572.957C275.66 590.993 265.766 612.09 261.757 636.25C257.749 660.411 249.568 682.427 237.214 702.3C224.861 722.173 215.259 743.316 208.408 765.73C201.557 788.144 191.121 809.041 177.099 828.422C163.077 847.803 152.704 868.712 145.979 891.15C139.254 913.587 132.969 936.087 127.124 958.649C121.279 981.211 116.547 1004.05 112.929 1027.16C109.311 1050.28 100.852 1072.22 87.5545 1092.98C74.2565 1113.75 69.2664 1136.33 72.5843 1160.74C75.9022 1185.14 73.6229 1208.5 65.7464 1230.81C57.87 1253.12 53.7322 1276.02 53.3331 1299.5C52.9339 1322.98 48.393 1346.06 39.7102 1368.74C31.0273 1391.42 30.1865 1414.64 37.1877 1438.42C44.1889 1462.2 46.1668 1485.66 43.1215 1508.8C40.0762 1531.94 38.1586 1555.15 37.3687 1578.43C36.5788 1601.71 37.1251 1624.94 39.0076 1648.14C40.89 1671.34 40.0859 1694.82 36.595 1718.6C33.1042 1742.38 35.0662 1765.58 42.4809 1788.2C49.8957 1810.82 56.0181 1833.52 60.8483 1856.3C65.6785 1879.09 68.5197 1902.47 69.3717 1926.45C70.2238 1950.42 77.5504 1972.45 91.3514 1992.53C105.153 2012.61 115.411 2033.83 122.127 2056.18C128.843 2078.53 136.293 2100.75 144.478 2122.84C152.663 2144.93 164.431 2164.98 179.782 2182.97C195.134 2200.97 209.858 2219.15 223.955 2237.53C238.052 2255.91 250.716 2275.87 261.947 2297.4C273.178 2318.93 290.238 2334.42 313.128 2343.86C336.018 2353.3 349.909 2362.27 354.802 2370.76L362.074 2383.43L362.141 2383.51M547.603 32.5089L547.636 32.6032C562.191 76.8716 570.761 110.859 573.347 134.565C575.933 158.271 583.564 180.189 596.24 200.319C608.916 220.448 620.879 240.712 632.13 261.111C643.381 281.51 652.606 302.918 659.803 325.335C667.001 347.753 675.979 369.315 686.736 390.022C697.494 410.729 709.883 430.547 723.904 449.476C737.926 468.406 749.963 488.427 760.016 509.54C770.07 530.653 778.218 552.761 784.462 575.863C790.706 598.965 802.5 619.168 819.843 636.47C837.186 653.773 849.89 673.475 857.954 695.577C866.019 717.679 876.232 738.789 888.594 758.907C900.956 779.025 909.02 800.946 912.787 824.669C916.555 848.393 923.197 870.935 932.716 892.297C942.234 913.658 951.324 935.198 959.986 956.919C968.648 978.639 977.548 1000.4 986.686 1022.21C995.825 1044.02 999.204 1067.21 996.823 1091.8C994.443 1116.38 999.452 1139.33 1011.85 1160.65C1024.25 1181.97 1030.15 1204.55 1029.56 1228.38C1028.97 1252.21 1031.32 1275.61 1036.63 1298.57C1041.93 1321.53 1042.41 1344.94 1038.09 1368.79C1033.76 1392.65 1036.55 1415.95 1046.45 1438.71C1056.35 1461.46 1060.45 1484.59 1058.74 1508.1C1057.02 1531.61 1055.58 1555.06 1054.41 1578.46C1053.24 1601.85 1052.46 1625.25 1052.09 1648.65C1051.72 1672.06 1047.64 1695.08 1039.84 1717.73C1032.05 1740.38 1028.59 1763.52 1029.45 1787.15C1030.32 1810.78 1028.67 1834.09 1024.51 1857.08C1020.35 1880.07 1012.87 1902.16 1002.07 1923.34C991.274 1944.52 985.506 1967.24 984.768 1991.48C984.031 2015.72 978.196 2038.27 967.266 2059.12C956.335 2079.97 944.489 2100.19 931.73 2119.8C918.97 2139.41 908.077 2160.1 899.049 2181.88C890.022 2203.65 878.621 2224.03 864.847 2243.01C851.073 2261.98 834.096 2277.97 813.915 2290.97C793.735 2303.97 777.73 2321.31 765.898 2342.98C754.067 2364.65 743.361 2376.82 733.779 2379.49L719.472 2383.43L719.405 2383.51M537.141 2762.51L537.141 718.509M537.141 2191.51C683.141 2129.51 847.641 1878.01 821.641 1692.51M537.141 1751.51C683.141 1689.51 759.641 1543.01 733.641 1357.51M537.141 1199.51C672.141 1114.51 672.141 970.509 672.141 924.509M537.141 1099.51C402.141 1014.51 402.141 870.509 402.141 824.509M536.657 1554.51C390.657 1492.51 314.157 1346.01 340.157 1160.51M537.373 2053.51C391.373 1991.51 226.873 1740.01 252.873 1554.51" stroke="url(#paint0_linear_7_2)" stroke-width="65" stroke-linecap="round"/>
<path d="M949.18 2792.51V2248.03H1014.12V2733.04H1157.33V2792.51H949.18ZM1277.65 2799C1244.61 2799 1218.97 2787.84 1200.74 2765.51C1182.51 2742.95 1173.4 2714.92 1173.4 2681.42C1173.4 2644.74 1187.18 2614.77 1214.76 2591.53C1242.56 2568.06 1285.85 2556.33 1344.64 2556.33V2549.15C1344.64 2525.68 1340.76 2508.48 1333.02 2497.54C1325.27 2486.37 1309.89 2480.79 1286.87 2480.79C1273.43 2480.79 1259.42 2483.07 1244.83 2487.63C1230.25 2491.96 1218.52 2497.08 1209.63 2503.01L1186.04 2448.32C1198.58 2441.03 1214.41 2434.99 1233.55 2430.2C1252.92 2425.42 1273.2 2423.03 1294.39 2423.03C1333.13 2423.03 1361.39 2433.17 1379.16 2453.45C1397.16 2473.5 1406.16 2504.6 1406.16 2546.76V2799H1366.51L1350.11 2761.06C1343.04 2771.32 1333.59 2780.2 1321.74 2787.72C1309.89 2795.24 1295.19 2799 1277.65 2799ZM1296.45 2742.95C1306.93 2742.95 1316.73 2740.1 1325.84 2734.4C1335.18 2728.48 1341.45 2721.98 1344.64 2714.92V2611.01H1338.14C1304.19 2611.01 1278.79 2617.51 1261.92 2630.5C1245.06 2643.49 1236.63 2660.8 1236.63 2682.45C1236.63 2699.31 1240.62 2713.67 1248.59 2725.52C1256.57 2737.14 1272.52 2742.95 1296.45 2742.95ZM1578.77 2798.66C1549.83 2798.66 1525.22 2788.64 1504.94 2768.58C1484.66 2748.53 1474.52 2719.25 1474.52 2680.74V2429.52H1536.39V2673.91C1536.39 2697.83 1541.17 2714.47 1550.74 2723.81C1560.54 2732.92 1574.78 2737.48 1593.47 2737.48C1606.23 2737.48 1617.62 2734.86 1627.65 2729.62C1637.9 2724.38 1646.45 2717.43 1653.28 2708.77V2429.52H1715.49V2792.51H1676.87L1661.83 2764.82C1651.57 2774.39 1639.27 2782.48 1624.91 2789.09C1610.78 2795.47 1595.4 2798.66 1578.77 2798.66ZM1794.44 2792.51V2423.03H1834.43L1846.74 2459.26C1861.09 2448.32 1876.59 2439.66 1893.22 2433.28C1909.86 2426.9 1927.06 2423.71 1944.83 2423.71V2490.7C1926.38 2490.7 1909.97 2492.75 1895.62 2496.85C1881.26 2500.73 1868.84 2506.2 1858.36 2513.26V2792.51H1794.44ZM2097.62 2798.66C2068.68 2798.66 2044.07 2788.64 2023.79 2768.58C2003.51 2748.53 1993.37 2719.25 1993.37 2680.74V2429.52H2055.23V2673.91C2055.23 2697.83 2060.02 2714.47 2069.59 2723.81C2079.39 2732.92 2093.63 2737.48 2112.31 2737.48C2125.07 2737.48 2136.47 2734.86 2146.49 2729.62C2156.75 2724.38 2165.29 2717.43 2172.13 2708.77V2429.52H2234.34V2792.51H2195.71L2180.67 2764.82C2170.42 2774.39 2158.12 2782.48 2143.76 2789.09C2129.63 2795.47 2114.25 2798.66 2097.62 2798.66ZM2376.87 2798.66C2359.55 2798.66 2343.82 2796.38 2329.7 2791.83C2315.8 2787.27 2303.04 2781.46 2291.42 2774.39L2315.34 2720.73C2324.46 2726.43 2334.48 2731.1 2345.42 2734.75C2356.59 2738.39 2367.52 2740.21 2378.23 2740.21C2392.36 2740.21 2403.98 2736.57 2413.1 2729.28C2422.21 2721.76 2426.77 2711.96 2426.77 2699.88C2426.77 2687.12 2422.1 2676.18 2412.75 2667.07C2403.64 2657.73 2393.16 2648.27 2381.31 2638.7L2357.72 2619.56C2338.58 2604.06 2324 2588.11 2313.97 2571.71C2304.18 2555.3 2299.28 2537.53 2299.28 2518.39C2299.28 2501.3 2303.61 2485.58 2312.27 2471.22C2321.15 2456.64 2333.34 2445.02 2348.84 2436.36C2364.56 2427.47 2382.68 2423.03 2403.18 2423.03C2430.3 2423.03 2456.28 2429.18 2481.11 2441.48L2455.14 2498.22C2446.71 2492.07 2437.93 2487.63 2428.82 2484.89C2419.93 2482.16 2410.93 2480.79 2401.82 2480.79C2389.06 2480.79 2378.8 2484.44 2371.05 2491.73C2363.53 2498.79 2359.78 2506.99 2359.78 2516.34C2359.78 2524.08 2362.4 2531.6 2367.64 2538.9C2372.88 2546.19 2381.76 2555.19 2394.3 2565.9L2421.64 2589.14C2445.34 2609.19 2462.31 2627.42 2472.57 2643.83C2482.82 2660.23 2487.95 2678.8 2487.95 2699.54C2487.95 2718.22 2483.16 2735.09 2473.59 2750.13C2464.02 2765.17 2450.81 2777.01 2433.95 2785.67C2417.31 2794.33 2398.28 2798.66 2376.87 2798.66Z" fill="url(#paint1_linear_7_2)"/>
<defs>
<linearGradient id="paint0_linear_7_2" x1="-154.359" y1="1314.51" x2="1059.14" y2="2487.51" gradientUnits="userSpaceOnUse">
<stop stop-color="#70C812"/>
<stop offset="1" stop-color="#7B00FF"/>
</linearGradient>
<linearGradient id="paint1_linear_7_2" x1="893.5" y1="2538.51" x2="2511.5" y2="2538.51" gradientUnits="userSpaceOnUse">
<stop offset="0.15" stop-color="#70C812"/>
<stop offset="0.9" stop-color="#7B00FF"/>
</linearGradient>
</defs>
</svg>